<?xml version="1.0" encoding="UTF-8" standalone="no"?>
<!-- Created with Inkscape (http://www.inkscape.org/) -->

<svg
   width="700"
   height="700"
   viewBox="0 0 185.20832 185.20834"
   version="1.1"
   id="svg5"
   inkscape:version="1.1.1 (3bf5ae0d25, 2021-09-20, custom)"
   sodipodi:docname="logo.svg"
   xmlns:inkscape="http://www.inkscape.org/namespaces/inkscape"
   xmlns:sodipodi="http://sodipodi.sourceforge.net/DTD/sodipodi-0.dtd"
   xmlns:xlink="http://www.w3.org/1999/xlink"
   xmlns="http://www.w3.org/2000/svg"
   xmlns:svg="http://www.w3.org/2000/svg">
  <sodipodi:namedview
     id="namedview7"
     pagecolor="#505050"
     bordercolor="#ffffff"
     borderopacity="1"
     inkscape:pageshadow="0"
     inkscape:pageopacity="0"
     inkscape:pagecheckerboard="1"
     inkscape:document-units="mm"
     showgrid="false"
     units="px"
     width="1080px"
     inkscape:zoom="0.41959175"
     inkscape:cx="296.71699"
     inkscape:cy="312.20824"
     inkscape:window-width="1366"
     inkscape:window-height="746"
     inkscape:window-x="0"
     inkscape:window-y="22"
     inkscape:window-maximized="0"
     inkscape:current-layer="layer1" />
  <defs
     id="defs2">
    <linearGradient
       inkscape:collect="always"
       id="linearGradient1286">
      <stop
         style="stop-color:#ff3b90;stop-opacity:1"
         offset="0"
         id="stop1282" />
      <stop
         style="stop-color:#653bff;stop-opacity:1"
         offset="1"
         id="stop1284" />
    </linearGradient>
    <linearGradient
       inkscape:collect="always"
       xlink:href="#linearGradient1286"
       id="linearGradient1288"
       x1="-6.9560304"
       y1="-2.1200254"
       x2="131.89665"
       y2="185.03094"
       gradientUnits="userSpaceOnUse"
       gradientTransform="translate(28.912607,2.5038828)" />
  </defs>
  <g
     inkscape:label="Camada 1"
     inkscape:groupmode="layer"
     id="layer1">
    <path
       style="fill:url(#linearGradient1288);fill-opacity:1;stroke-width:0.264583"
       d="m 114.31027,182.5602 c -7.69061,-0.88181 -14.617686,-4.18401 -20.331576,-9.69221 -5.11979,-4.93548 -8.66952,-11.64619 -9.89988,-18.71551 -0.52456,-3.01396 -0.52681,-8.66996 -0.005,-11.70464 1.2407,-7.21074 4.77058,-13.78846 10.19188,-18.99196 4.97458,-4.77472 10.146836,-7.47361 17.325056,-9.04023 3.22057,-0.70288 9.75355,-0.65037 13.28329,0.10677 6.24004,1.33849 11.83069,4.16809 16.29294,8.24633 l 1.52481,1.3936 -0.18539,-46.297801 -0.18539,-46.297785 0.59488,-1.228849 c 0.68493,-1.41487 1.54329,-2.110621 3.13157,-2.538299 2.10227,-0.566084 4.54051,0.562055 5.50612,2.547594 0.4701,0.96666 0.49893,3.398898 0.71753,60.538369 0.20679,54.054261 0.18865,59.790521 -0.19718,62.349371 -2.20023,14.59191 -13.09263,26.0399 -27.41841,28.81695 -3.12314,0.60543 -7.58616,0.8247 -10.3456,0.5083 z m 9.70854,-10.26788 c 8.73718,-2.33812 15.20534,-8.59357 17.75283,-17.169 0.84952,-2.85968 1.1432,-7.75185 0.64919,-10.8142 -1.30824,-8.10975 -6.6044,-15.02886 -14.1844,-18.53102 -2.80456,-1.29579 -5.59728,-1.95926 -8.98012,-2.13341 -7.01389,-0.36108 -13.18815,1.96103 -18.32382,6.89147 -8.254396,7.92455 -10.012886,20.02429 -4.368956,30.06174 1.71038,3.04184 5.716926,7.12749 8.669856,8.84103 2.68245,1.55659 5.63782,2.70081 8.26395,3.19952 2.69231,0.51128 7.96574,0.33779 10.52147,-0.34613 z M 75.996934,109.15519 c -7.51589,-0.97939 -15.0823,-3.55323 -21.03437,-7.1552 C 41.843312,94.060709 32.830389,81.209849 29.817171,66.147039 c -0.954344,-4.77069 -1.187352,-12.06301 -0.536834,-16.801036 1.685422,-12.275749 6.663441,-22.484655 15.09889,-30.964754 3.315827,-3.33338 6.380197,-5.784895 9.958807,-7.967118 21.5869,-13.163579 49.274116,-9.61548703 66.629436,8.538501 7.10236,7.429191 11.75869,16.32136 13.90636,26.556909 0.84798,4.041332 1.18521,12.260688 0.67932,16.556988 -0.97737,8.30044 -4.06741,16.72538 -8.67771,23.65968 -2.27179,3.41697 -3.12724,4.4575 -6.38025,7.76065 -8.15654,8.282241 -18.11877,13.450881 -29.681586,15.399491 -3.46264,0.58354 -11.3091,0.72591 -14.81667,0.26884 z m 15.21354,-10.193451 c 11.260756,-2.41637 21.108106,-9.01757 27.424006,-18.38374 6.78845,-10.06693 9.14291,-22.55213 6.46354,-34.274708 -3.36133,-14.706282 -14.05145,-26.680527 -28.223096,-31.613355 -15.73645,-5.4775 -32.70933,-1.783149 -44.91007,9.775213 -10.82686,10.256814 -15.640237,26.31707 -12.321815,41.11285 0.862106,3.84384 1.629299,6.01693 3.423521,9.69716 3.38278,6.93863 8.546374,12.83715 15.012074,17.14873 5.7463,3.83187 11.58475,5.98937 19.37351,7.15917 0.43656,0.0656 3.11547,0.0803 5.95312,0.0328 4.02859,-0.0675 5.73927,-0.21083 7.80521,-0.65415 z M 145.20969,20.359575 c -1.54829,-0.388061 -3.73597,-1.73623 -4.61168,-2.841969 -1.69033,-2.134327 -2.02713,-3.13247 -2.02691,-6.007023 1.8e-4,-2.353731 0.0779,-2.793058 0.70393,-3.979373 0.80807,-1.531284 2.58768,-3.272636 4.16895,-4.07934 4.34733,-2.217844 9.92645,-0.291375 12.11833,4.184456 0.6329,1.292371 0.73146,1.81301 0.73341,3.874257 0.002,2.092883 -0.0904,2.569906 -0.76267,3.939122 -1.49871,3.052308 -4.17824,4.862327 -7.4926,5.061238 -0.98815,0.05931 -2.26199,-0.0088 -2.83076,-0.151368 z"
       id="path8976"
       sodipodi:nodetypes="csscsssscccssssssccssssssssssssssscsssssssssssssssscssssssssscss" />
  </g>
</svg>
